<?xml version="1.0" encoding="utf-8"?>
<!-- Generator: Adobe Illustrator 27.1.1, SVG Export Plug-In . SVG Version: 6.00 Build 0)  -->
<svg version="1.1" id="Layer_1" xmlns="http://www.w3.org/2000/svg" xmlns:xlink="http://www.w3.org/1999/xlink" x="0px" y="0px"
	 viewBox="0 0 541.54 55.64" style="enable-background:new 0 0 541.54 55.64;" xml:space="preserve">
<style type="text/css">
	.st0{fill:#DCDDDE;}
</style>
<g>
	<polygon class="st0" points="18.51,39.87 18.51,32.66 38.89,32.66 38.89,21.51 18.51,21.51 18.51,14.91 42.35,14.91 42.35,2.9 
		18.51,2.9 2.82,2.9 2.82,14.91 2.82,39.87 2.82,52.71 18.51,52.71 43.46,52.71 43.46,39.87 	"/>
	<polygon class="st0" points="465.68,39.86 465.68,32.65 486.07,32.65 486.07,21.47 465.68,21.47 465.68,14.86 489.53,14.86 
		489.53,2.84 465.68,2.84 450,2.84 450,14.86 450,39.86 450,52.71 465.68,52.71 490.64,52.71 490.64,39.86 	"/>
	<polygon class="st0" points="514.61,39.86 514.61,32.65 534.99,32.65 534.99,21.47 514.61,21.47 514.61,14.86 538.45,14.86 
		538.45,2.84 514.61,2.84 498.92,2.84 498.92,14.86 498.92,39.86 498.92,52.71 514.61,52.71 539.57,52.71 539.57,39.86 	"/>
	<rect x="105.61" y="2.9" class="st0" width="16.43" height="49.81"/>
	<polygon class="st0" points="399.37,14.62 399.37,3.01 377.87,3.01 362.31,3.01 362.31,14.62 362.31,22.86 362.31,34.72 
		362.31,52.71 377.87,52.71 377.87,34.72 395.34,34.72 395.34,22.86 377.87,22.86 377.87,14.62 	"/>
	<polygon class="st0" points="443.27,14.62 443.27,3.01 421.77,3.01 406.21,3.01 406.21,14.62 406.21,22.86 406.21,34.72 
		406.21,52.71 421.77,52.71 421.77,34.72 439.24,34.72 439.24,22.86 421.77,22.86 421.77,14.62 	"/>
	<path class="st0" d="M328.95,1.4c-14.55,0-26.35,11.85-26.35,26.46c0,14.62,11.8,26.46,26.35,26.46
		c14.56,0,26.36-11.84,26.36-26.46C355.31,13.24,343.51,1.4,328.95,1.4z M328.95,41.47c-7.97,0-9.71-6.09-9.71-13.61
		c0-7.52,1.87-13.61,9.71-13.61c8.09,0,9.72,6.09,9.72,13.61C338.67,35.38,336.79,41.47,328.95,41.47z"/>
	<path class="st0" d="M283.58,33.4c-0.94,4.76-3.47,8.08-9.26,8.08c-7.96,0-9.71-6.09-9.71-13.61c0-7.52,1.88-13.61,9.71-13.61
		c5.49,0,8,2.81,9.05,6.96h15.13C296.08,7.43,285.94,1.4,273.8,1.4c-13.95,0-25.26,11.85-25.26,26.46
		c0,14.62,11.31,26.46,25.26,26.46c12.43,0,22.75-6.74,24.85-20.92H283.58z"/>
	<polygon class="st0" points="129.05,2.9 146.96,2.9 155.49,19.52 164.14,2.9 181.19,2.9 163.89,33.11 163.89,52.71 147.33,52.71 
		147.33,33.11 	"/>
	<path class="st0" d="M77.76,2.9H50.97v49.96h28.58c0,0,18.45-1.84,18.45-25.89C98,26.97,98.9,2.9,77.76,2.9z M76.58,39.74h-9.47
		V14.95h8.81c6.42,0,6.59,12.86,6.59,12.86C82.51,38.61,76.58,39.74,76.58,39.74z"/>
	<path class="st0" d="M207.46,2.9h-16.14l-17.63,49.81h15.57l2.06-6.95h15.9l2.14,6.95h15.98L207.46,2.9z M194.29,36.04l5.22-17.55
		l4.74,17.55H194.29z"/>
</g>
</svg>
